<svg width="40" height="40" viewBox="0 0 40 40" fill="none" xmlns="http://www.w3.org/2000/svg">
<path d="M18.3333 13.3333H21.6667C26.3807 13.3333 28.7377 13.3333 30.2022 14.7978C31.6667 16.2623 31.6667 18.6193 31.6667 23.3333C31.6667 28.0473 31.6667 30.4043 30.2022 31.8688C28.7377 33.3333 26.3807 33.3333 21.6667 33.3333H20C20 33.3333 19.1667 36.6667 13.3333 36.6667C13.3333 36.6667 15 34.9855 15 33.3045C12.4109 33.2265 10.8666 32.9377 9.79781 31.8688C8.33334 30.4043 8.33334 28.0473 8.33334 23.3333C8.33334 18.6193 8.33334 16.2623 9.79781 14.7978C11.2623 13.3333 13.6193 13.3333 18.3333 13.3333Z" fill="#3A95D2" stroke="#3A95D2" stroke-width="1.5" stroke-linejoin="round"/>
<path d="M31.6667 19.1667H32.5C34.0577 19.1667 34.8365 19.1667 35.4167 19.5017C35.7967 19.721 36.1123 20.0367 36.3317 20.4167C36.6667 20.9968 36.6667 21.7757 36.6667 23.3333C36.6667 24.891 36.6667 25.6698 36.3317 26.25C36.1123 26.63 35.7967 26.9457 35.4167 27.165C34.8365 27.5 34.0577 27.5 32.5 27.5H31.6667" stroke="#3A95D2" stroke-width="1.5" stroke-linejoin="round"/>
<path d="M8.33334 19.1667H7.50001C5.94231 19.1667 5.16348 19.1667 4.58334 19.5017C4.20329 19.721 3.88769 20.0367 3.66828 20.4167C3.33334 20.9968 3.33334 21.7757 3.33334 23.3333C3.33334 24.891 3.33334 25.6698 3.66828 26.25C3.88769 26.63 4.20329 26.9457 4.58334 27.165C5.16348 27.5 5.94231 27.5 7.50001 27.5H8.33334" stroke="#3A95D2" stroke-width="1.5" stroke-linejoin="round"/>
<path d="M22.5 5.83334C22.5 7.21406 21.3807 8.33334 20 8.33334C18.6193 8.33334 17.5 7.21406 17.5 5.83334C17.5 4.45263 18.6193 3.33334 20 3.33334C21.3807 3.33334 22.5 4.45263 22.5 5.83334Z" stroke="#3A95D2" stroke-width="1.5"/>
<path d="M20 8.33334V13.3333" stroke="#3A95D2" stroke-width="1.5" stroke-linecap="round" stroke-linejoin="round"/>
<path d="M15 20V21.6667M25 20V21.6667" stroke="white" stroke-width="1.5" stroke-linecap="round" stroke-linejoin="round"/>
<path d="M16.6667 27.5C16.6667 27.5 17.7778 28.3333 20 28.3333C22.2222 28.3333 23.3333 27.5 23.3333 27.5" stroke="white" stroke-width="1.5" stroke-linecap="round"/>
</svg>
