<svg width="36" height="36" viewBox="0 0 36 36" fill="none" xmlns="http://www.w3.org/2000/svg">
<rect width="36" height="36" rx="18" fill="#3A95D2"/>
<path d="M16.6667 12.6667H19.3334C23.1046 12.6667 24.9902 12.6667 26.1618 13.8382C27.3334 15.0098 27.3334 16.8955 27.3334 20.6667C27.3334 24.4379 27.3334 26.3235 26.1618 27.4951C24.9902 28.6667 23.1046 28.6667 19.3334 28.6667H18C18 28.6667 17.3334 31.3333 12.6667 31.3333C12.6667 31.3333 14 29.9884 14 28.6436C11.9288 28.5812 10.6933 28.3501 9.83826 27.4951C8.66669 26.3235 8.66669 24.4379 8.66669 20.6667C8.66669 16.8955 8.66669 15.0098 9.83826 13.8382C11.0098 12.6667 12.8954 12.6667 16.6667 12.6667Z" stroke="#F8F8F8" stroke-width="1.5" stroke-linejoin="round"/>
<path d="M27.3333 17.3333H28C29.2461 17.3333 29.8692 17.3333 30.3333 17.6013C30.6373 17.7768 30.8898 18.0293 31.0653 18.3333C31.3333 18.7975 31.3333 19.4205 31.3333 20.6667C31.3333 21.9128 31.3333 22.5359 31.0653 23C30.8898 23.304 30.6373 23.5565 30.3333 23.732C29.8692 24 29.2461 24 28 24H27.3333" stroke="#F8F8F8" stroke-width="1.5" stroke-linejoin="round"/>
<path d="M8.66669 17.3333H8.00002C6.75386 17.3333 6.13079 17.3333 5.66669 17.6013C5.36265 17.7768 5.11017 18.0293 4.93463 18.3333C4.66669 18.7975 4.66669 19.4205 4.66669 20.6667C4.66669 21.9128 4.66669 22.5359 4.93463 23C5.11017 23.304 5.36265 23.5565 5.66669 23.732C6.13079 24 6.75386 24 8.00002 24H8.66669" stroke="#F8F8F8" stroke-width="1.5" stroke-linejoin="round"/>
<path d="M20 6.66667C20 7.77124 19.1045 8.66667 18 8.66667C16.8955 8.66667 16 7.77124 16 6.66667C16 5.56209 16.8955 4.66667 18 4.66667C19.1045 4.66667 20 5.56209 20 6.66667Z" stroke="#F8F8F8" stroke-width="1.5"/>
<path d="M18 8.66667V12.6667" stroke="#F8F8F8" stroke-width="1.5" stroke-linecap="round" stroke-linejoin="round"/>
<path d="M14 18V19.3333M22 18V19.3333" stroke="#F8F8F8" stroke-width="1.5" stroke-linecap="round" stroke-linejoin="round"/>
<path d="M15.3333 24C15.3333 24 16.2222 24.6667 18 24.6667C19.7777 24.6667 20.6666 24 20.6666 24" stroke="#F8F8F8" stroke-width="1.5" stroke-linecap="round"/>
</svg>
