<svg width="32" height="34" viewBox="0 0 32 34" fill="none" xmlns="http://www.w3.org/2000/svg">
<path d="M2.66675 11.6667C2.66675 11.6667 8.63628 5 16.0001 5C23.3638 5 29.3334 11.6667 29.3334 11.6667" stroke="#1C567D" stroke-width="1.5" stroke-linecap="round"/>
<path d="M28.7254 18.3935C29.1307 18.9619 29.3334 19.2462 29.3334 19.6668C29.3334 20.0875 29.1307 20.3718 28.7254 20.9402C26.9039 23.4943 22.2523 29.0002 16.0001 29.0002C9.74779 29.0002 5.09621 23.4943 3.2748 20.9402C2.86943 20.3718 2.66675 20.0875 2.66675 19.6668C2.66675 19.2462 2.86943 18.9619 3.2748 18.3935C5.09621 15.8394 9.74779 10.3335 16.0001 10.3335C22.2523 10.3335 26.9039 15.8394 28.7254 18.3935Z" stroke="#1C567D" stroke-width="1.5"/>
<path d="M20 19.6665C20 17.4573 18.2092 15.6665 16 15.6665C13.7908 15.6665 12 17.4573 12 19.6665C12 21.8757 13.7908 23.6665 16 23.6665C18.2092 23.6665 20 21.8757 20 19.6665Z" stroke="#1C567D" stroke-width="1.5"/>
</svg>
